<?xml version="1.0" standalone="no"?>
<!DOCTYPE svg PUBLIC "-//W3C//DTD SVG 20010904//EN"
 "http://www.w3.org/TR/2001/REC-SVG-20010904/DTD/svg10.dtd">
<svg version="1.0" xmlns="http://www.w3.org/2000/svg"
 width="3508.000000pt" height="1378.000000pt" viewBox="0 0 3508.000000 1378.000000"
 preserveAspectRatio="xMidYMid meet">

<g transform="translate(0.000000,1378.000000) scale(0.100000,-0.100000)"
fill="#000000" stroke="none">
<path d="M3340 12059 c-721 -83 -1316 -620 -1470 -1328 -41 -184 -41 -227 -37
-2826 3 -2320 4 -2516 20 -2595 74 -367 228 -660 477 -910 254 -254 562 -413
921 -477 100 -17 292 -18 5104 -18 4812 0 5004 1 5104 18 359 64 667 223 921
477 249 250 403 543 477 910 16 79 17 274 21 2600 2 1792 0 2547 -8 2625 -81
807 -705 1434 -1515 1525 -113 12 -9905 11 -10015 -1z m3040 -1183 c360 -52
635 -133 925 -276 268 -131 471 -277 703 -506 l153 -151 -91 -139 c-50 -76
-127 -211 -171 -300 l-80 -161 -360 -171 c-198 -95 -364 -172 -369 -172 -4 0
-27 26 -51 58 -23 31 -90 104 -148 162 -303 301 -659 429 -1106 399 -455 -30
-805 -226 -1042 -582 -130 -195 -216 -436 -260 -727 -25 -163 -24 -569 0 -730
64 -413 199 -708 433 -945 274 -278 657 -405 1124 -375 259 17 437 63 637 164
329 165 554 450 616 780 l15 76 -749 0 -749 0 0 580 0 580 880 0 c484 0 880
-1 880 -2 0 -2 -7 -66 -15 -143 -17 -162 -19 -462 -5 -620 16 -174 47 -344
100 -560 97 -399 209 -659 414 -967 42 -63 76 -120 76 -126 0 -22 -283 -296
-382 -370 -381 -285 -796 -444 -1353 -519 -186 -25 -793 -25 -977 0 -570 77
-1011 259 -1418 583 -105 84 -324 302 -410 409 -115 141 -248 353 -335 529
-156 319 -241 599 -292 966 -24 175 -24 613 0 790 95 682 354 1209 823 1672
452 447 1055 726 1729 802 176 20 691 15 855 -8z m5009 -40 c664 -88 1171
-319 1567 -711 447 -443 698 -1019 779 -1785 19 -177 31 -593 21 -712 l-8 -88
-1479 0 -1479 0 0 580 0 580 745 0 c721 0 745 1 745 19 0 51 -55 226 -100 316
-195 394 -618 641 -1158 674 -475 29 -840 -90 -1117 -364 -196 -193 -322 -421
-396 -711 -50 -200 -63 -323 -64 -599 0 -256 9 -355 46 -530 112 -526 438
-922 879 -1069 141 -47 235 -65 394 -75 279 -19 509 22 731 129 180 86 366
239 509 418 32 39 61 72 65 72 16 0 1295 -616 1298 -625 1 -5 -37 -63 -85
-127 -482 -646 -1104 -1009 -1922 -1123 -157 -22 -606 -31 -781 -16 -923 82
-1691 527 -2186 1268 -233 350 -379 750 -439 1208 -22 164 -25 599 -6 755 45
364 150 710 312 1028 143 284 284 476 515 708 484 485 1041 732 1795 798 121
10 701 -2 819 -18z"/>
<path d="M28710 8140 l0 -3200 720 0 720 0 0 948 c0 523 5 1010 10 1087 49
689 232 1019 626 1127 107 29 356 32 453 5 206 -56 332 -180 405 -397 62 -188
60 -133 63 -1512 l4 -1258 735 0 735 0 -4 1453 c-3 1287 -5 1466 -20 1577 -43
316 -105 507 -225 691 -249 382 -765 599 -1367 576 -354 -14 -647 -103 -902
-274 -162 -108 -357 -313 -493 -518 -29 -44 -56 -83 -59 -87 -4 -4 -1 36 6 90
29 230 33 445 33 1654 l0 1238 -720 0 -720 0 0 -3200z"/>
<path d="M15310 10265 l0 -715 675 0 675 0 0 -2305 0 -2305 825 0 825 0 0
2305 0 2305 675 0 675 0 0 715 0 715 -2175 0 -2175 0 0 -715z"/>
<path d="M21501 9229 c-501 -45 -936 -223 -1297 -532 -407 -349 -657 -797
-741 -1328 -26 -164 -26 -626 0 -784 73 -445 243 -798 529 -1100 354 -375 842
-607 1428 -680 271 -34 640 -30 920 10 539 78 997 320 1255 663 67 89 181 297
168 305 -6 4 -1033 412 -1088 433 -5 2 -25 -23 -43 -55 -153 -267 -424 -411
-807 -428 -327 -14 -553 59 -735 237 -160 157 -248 375 -267 661 l-6 99 1581
0 1582 0 0 138 c0 450 -97 896 -267 1236 -375 749 -1062 1143 -1978 1135 -77
-1 -182 -6 -234 -10z m437 -918 c139 -40 278 -125 370 -225 121 -133 187 -277
226 -493 l6 -33 -845 0 -844 0 6 33 c24 129 89 300 148 393 130 203 281 296
565 348 14 3 86 3 160 1 99 -2 155 -9 208 -24z"/>
<path d="M26555 9233 c-539 -46 -959 -228 -1317 -572 -281 -269 -475 -602
-572 -981 -62 -242 -71 -329 -71 -665 0 -324 9 -415 62 -640 187 -793 773
-1379 1541 -1539 198 -41 295 -50 532 -50 190 0 245 3 354 23 217 38 415 104
610 202 l111 56 3 631 c1 348 -1 632 -4 632 -3 0 -36 -27 -72 -61 -137 -125
-296 -214 -470 -261 -106 -29 -367 -31 -492 -5 -400 86 -666 387 -731 828 -15
105 -6 408 16 504 86 385 315 642 653 732 87 24 115 27 267 27 142 -1 183 -4
247 -22 177 -49 304 -114 475 -244 57 -43 105 -78 108 -78 3 0 4 278 3 617
l-3 617 -112 57 c-268 135 -594 202 -960 197 -76 -1 -156 -3 -178 -5z"/>
<path d="M6134 3050 c-107 -23 -207 -100 -254 -195 -22 -43 -25 -64 -25 -155
0 -89 3 -111 22 -145 42 -79 109 -121 274 -173 129 -40 158 -56 176 -99 40
-97 -46 -179 -168 -159 -54 9 -106 36 -174 92 -31 25 -59 43 -62 41 -2 -3 -33
-52 -68 -108 l-64 -104 37 -32 c127 -110 311 -155 483 -119 89 19 142 48 204
110 113 113 139 327 55 459 -38 60 -103 97 -260 147 -132 42 -150 52 -168 87
-19 34 -14 60 16 94 23 26 38 33 79 36 58 6 132 -15 188 -53 20 -13 39 -24 44
-24 4 0 28 47 53 105 l46 105 -42 24 c-101 59 -282 90 -392 66z"/>
<path d="M7900 3045 c-225 -51 -407 -236 -455 -460 -27 -128 -11 -244 50 -374
48 -101 160 -213 265 -265 346 -169 760 15 855 379 19 76 19 214 0 290 -38
145 -150 292 -275 362 -129 72 -302 99 -440 68z m256 -273 c121 -62 192 -220
165 -367 -29 -154 -128 -251 -267 -263 -119 -9 -226 53 -281 166 -25 52 -28
67 -28 162 0 96 3 110 30 164 34 67 98 128 158 150 58 22 169 16 223 -12z"/>
<path d="M23470 3045 c-225 -51 -407 -236 -455 -460 -27 -128 -11 -244 50
-374 48 -101 160 -213 265 -265 149 -72 310 -84 463 -32 252 85 407 297 407
556 0 162 -53 293 -165 406 -117 118 -240 172 -405 180 -62 2 -118 -1 -160
-11z m256 -273 c121 -62 192 -220 165 -367 -29 -154 -128 -251 -267 -263 -119
-9 -226 53 -281 166 -25 52 -28 67 -28 162 0 96 3 110 30 164 34 67 98 128
158 150 58 22 169 16 223 -12z"/>
<path d="M27264 3050 c-107 -23 -207 -100 -254 -195 -22 -43 -25 -64 -25 -155
0 -89 3 -111 22 -145 42 -79 109 -121 274 -173 129 -40 158 -56 176 -99 40
-97 -46 -179 -168 -159 -54 9 -106 36 -174 92 -31 25 -59 43 -62 41 -2 -3 -33
-52 -68 -108 l-64 -104 37 -32 c127 -110 311 -155 483 -119 89 19 142 48 204
110 113 113 139 327 55 459 -38 60 -103 97 -260 147 -132 42 -150 52 -168 87
-19 34 -14 60 16 94 23 26 38 33 79 36 58 6 132 -15 188 -53 20 -13 39 -24 44
-24 4 0 28 47 53 105 l46 105 -42 24 c-101 59 -282 90 -392 66z"/>
<path d="M9520 2465 l0 -565 150 0 150 0 0 225 0 225 180 0 180 0 0 120 0 120
-180 0 -180 0 0 100 0 100 195 0 195 0 0 120 0 120 -345 0 -345 0 0 -565z"/>
<path d="M10970 2895 l0 -135 125 0 125 0 0 -430 0 -430 155 0 155 0 0 430 0
430 125 0 125 0 0 135 0 135 -405 0 -405 0 0 -135z"/>
<path d="M12490 3021 c0 -5 65 -241 144 -523 79 -282 149 -532 155 -555 l12
-43 143 0 143 0 82 298 c45 163 85 304 87 312 3 8 19 -34 35 -95 16 -60 55
-200 87 -310 l58 -200 141 -3 142 -3 11 38 c6 21 78 274 159 563 l147 525
-149 3 c-82 1 -152 0 -155 -2 -5 -6 -106 -410 -146 -586 -20 -89 -25 -100 -31
-75 -13 55 -72 287 -121 478 l-49 188 -124 -3 -125 -3 -82 -320 c-45 -176 -85
-333 -89 -350 -6 -25 -11 -13 -31 80 -14 61 -50 218 -82 350 l-57 240 -153 3
c-93 1 -152 -1 -152 -7z"/>
<path d="M14876 2477 c-104 -303 -191 -558 -194 -565 -3 -10 28 -12 149 -10
l152 3 8 25 c4 14 17 58 29 98 l21 72 218 0 218 0 28 -100 27 -100 149 0 c82
0 149 4 149 9 0 5 -75 226 -166 492 -91 266 -177 517 -191 557 l-25 72 -191 0
-192 0 -189 -553z m398 307 c6 -27 90 -314 132 -446 5 -17 -6 -18 -145 -18
-83 0 -151 3 -151 6 0 3 29 103 65 222 36 120 68 232 71 249 8 40 20 35 28
-13z"/>
<path d="M16640 2465 l0 -565 145 0 145 0 0 223 0 222 127 -222 127 -223 173
0 172 0 -145 222 c-80 122 -148 226 -150 232 -3 7 15 17 38 24 65 20 129 72
163 133 28 51 30 60 30 169 0 105 -2 119 -27 166 -31 60 -94 119 -154 145 -65
29 -166 38 -416 39 l-228 0 0 -565z m441 315 c60 -17 83 -50 87 -129 4 -61 2
-70 -22 -98 -29 -35 -86 -53 -165 -53 l-51 0 0 145 0 145 58 0 c31 0 73 -5 93
-10z"/>
<path d="M18340 2465 l0 -565 345 0 345 0 0 125 0 125 -195 0 -195 0 0 100 0
100 185 0 185 0 0 120 0 120 -185 0 -185 0 0 100 0 100 195 0 195 0 0 120 0
120 -345 0 -345 0 0 -565z"/>
<path d="M21100 2465 l0 -565 155 0 155 0 0 230 0 230 200 0 200 0 0 -230 0
-230 155 0 155 0 0 565 0 565 -155 0 -155 0 0 -220 0 -220 -200 0 -200 0 0
220 0 220 -155 0 -155 0 0 -565z"/>
<path d="M25080 2708 c1 -178 5 -368 10 -424 19 -216 95 -320 275 -377 58 -18
94 -22 210 -22 200 0 296 27 384 110 57 53 95 131 110 225 6 37 11 225 11 438
l0 372 -149 0 -149 0 -4 -372 -3 -373 -25 -50 c-35 -71 -90 -98 -182 -92 -84
5 -129 32 -154 90 -17 38 -19 78 -22 420 l-3 377 -155 0 -154 0 0 -322z"/>
<path d="M28610 2465 l0 -565 345 0 345 0 0 125 0 125 -195 0 -195 0 0 100 0
100 185 0 185 0 0 120 0 120 -185 0 -185 0 0 100 0 100 195 0 195 0 0 120 0
120 -345 0 -345 0 0 -565z"/>
</g>
</svg>
